<svg id="Layer_1" data-name="Layer 1" xmlns="http://www.w3.org/2000/svg" viewBox="0 0 282.74 227.64"><defs><style>.cls-1{fill:#fff;}</style></defs><title>icon_imag3d</title><g id="_0P0sW9.tif" data-name="0P0sW9.tif"><path class="cls-1" d="M198.21,37.27h94.25V264.91H9.72q0-84.82,0-169.64a20.6,20.6,0,0,1,1.18,2.55q23.34,75.51,46.65,151c1.52,4.91,3.05,9.81,4.64,14.9L248.9,206.28a170.6,170.6,0,0,0-21.46-5.86,14.11,14.11,0,0,0-6.65.18q-50.11,14.88-100.15,30c-16.27,4.88-32.55,9.72-49.1,14.67L27.86,103.8,188.78,55.09,201.85,97c3.44-3.18,6.29-6,9.3-8.54,1.54-1.32,1.61-2.55,1-4.41C207.47,68.48,202.86,52.87,198.21,37.27ZM79.82,172.82l211.85,26L231.9,78.69l-52.44,56.76L157.94,110Zm88.69-68.75a14.71,14.71,0,0,0,.5-29.41A14.71,14.71,0,1,0,168.51,104.08Z" transform="translate(-9.72 -37.27)"/><path d="M198.21,37.27c4.65,15.6,9.26,31.21,14,46.79,0.57,1.86.5,3.09-1,4.41-3,2.59-5.87,5.37-9.3,8.54L188.78,55.09,27.86,103.8,71.54,245.25c16.56-4.94,32.84-9.79,49.1-14.67q50.07-15,100.15-30a14.11,14.11,0,0,1,6.65-.18,170.6,170.6,0,0,1,21.46,5.86L62.18,263.74c-1.59-5.09-3.12-10-4.64-14.9q-23.32-75.51-46.65-151a20.6,20.6,0,0,0-1.18-2.55V93.82a20.93,20.93,0,0,0,2.11-.41Q95.78,68.15,179.71,42.85c5.72-1.73,11.37-3.72,17-5.59h1.45Z" transform="translate(-9.72 -37.27)"/><path class="cls-1" d="M196.76,37.27c-5.68,1.87-11.32,3.86-17,5.59Q95.78,68.17,11.83,93.4a20.93,20.93,0,0,1-2.11.41V37.27h187Z" transform="translate(-9.72 -37.27)"/><path d="M79.82,172.82L157.94,110l21.51,25.49L231.9,78.69l59.77,120.15Z" transform="translate(-9.72 -37.27)"/><path d="M168.51,104.08a14.71,14.71,0,1,1,14.83-14.61A14.72,14.72,0,0,1,168.51,104.08Z" transform="translate(-9.72 -37.27)"/></g></svg>